<svg xmlns="http://www.w3.org/2000/svg" width="395.698" height="474.648" viewBox="0 0 395.698 474.648">
  <g id="Group_2324" data-name="Group 2324" transform="translate(-142.836 -171.352)">
    <g id="Group_2160" data-name="Group 2160" transform="translate(437.585 230.722)">
      <g id="Group_2056" data-name="Group 2056" transform="translate(5.333 0.024)">
        <g id="Group_2055" data-name="Group 2055">
          <g id="Group_2054" data-name="Group 2054">
            <g id="Group_2053" data-name="Group 2053">
              <g id="Group_2052" data-name="Group 2052">
                <g id="Group_2051" data-name="Group 2051">
                  <g id="Group_2050" data-name="Group 2050">
                    <g id="Group_2049" data-name="Group 2049">
                      <g id="Group_2048" data-name="Group 2048">
                        <g id="Group_2047" data-name="Group 2047">
                          <g id="Group_2046" data-name="Group 2046">
                            <rect id="Rectangle_93" data-name="Rectangle 93" width="78.388" height="81.712" fill="#d9d9d8"/>
                          </g>
                        </g>
                      </g>
                    </g>
                  </g>
                </g>
              </g>
            </g>
          </g>
        </g>
      </g>
      <g id="Group_2077" data-name="Group 2077" transform="translate(0 0)">
        <g id="Group_2066" data-name="Group 2066" transform="translate(0.025 0.024)">
          <g id="Group_2065" data-name="Group 2065">
            <g id="Group_2064" data-name="Group 2064">
              <g id="Group_2063" data-name="Group 2063">
                <g id="Group_2062" data-name="Group 2062">
                  <g id="Group_2061" data-name="Group 2061">
                    <g id="Group_2060" data-name="Group 2060">
                      <g id="Group_2059" data-name="Group 2059">
                        <g id="Group_2058" data-name="Group 2058">
                          <g id="Group_2057" data-name="Group 2057">
                            <rect id="Rectangle_94" data-name="Rectangle 94" width="78.387" height="81.712" fill="#f8fafa"/>
                          </g>
                        </g>
                      </g>
                    </g>
                  </g>
                </g>
              </g>
            </g>
          </g>
        </g>
        <g id="Group_2076" data-name="Group 2076">
          <g id="Group_2075" data-name="Group 2075">
            <g id="Group_2074" data-name="Group 2074">
              <g id="Group_2073" data-name="Group 2073">
                <g id="Group_2072" data-name="Group 2072">
                  <g id="Group_2071" data-name="Group 2071">
                    <g id="Group_2070" data-name="Group 2070">
                      <g id="Group_2069" data-name="Group 2069">
                        <g id="Group_2068" data-name="Group 2068">
                          <g id="Group_2067" data-name="Group 2067">
                            <path id="Path_1591" data-name="Path 1591" d="M494.724,1406.5H416.288v-81.761h78.436Zm-78.387-.048h78.338V1324.79H416.337Z" transform="translate(-416.288 -1324.741)" fill="#d9d9d8"/>
                          </g>
                        </g>
                      </g>
                    </g>
                  </g>
                </g>
              </g>
            </g>
          </g>
        </g>
      </g>
      <g id="Group_2088" data-name="Group 2088" transform="translate(10.562 11.009)">
        <g id="Group_2087" data-name="Group 2087">
          <g id="Group_2086" data-name="Group 2086">
            <g id="Group_2085" data-name="Group 2085">
              <g id="Group_2084" data-name="Group 2084">
                <g id="Group_2083" data-name="Group 2083">
                  <g id="Group_2082" data-name="Group 2082">
                    <g id="Group_2081" data-name="Group 2081">
                      <g id="Group_2080" data-name="Group 2080">
                        <g id="Group_2079" data-name="Group 2079">
                          <g id="Group_2078" data-name="Group 2078">
                            <rect id="Rectangle_95" data-name="Rectangle 95" width="57.312" height="59.743" fill="#f8fafa"/>
                          </g>
                        </g>
                      </g>
                    </g>
                  </g>
                </g>
              </g>
            </g>
          </g>
        </g>
      </g>
      <g id="Group_2100" data-name="Group 2100" transform="translate(0.101 71.145)">
        <g id="Group_2099" data-name="Group 2099">
          <g id="Group_2098" data-name="Group 2098">
            <g id="Group_2097" data-name="Group 2097">
              <g id="Group_2096" data-name="Group 2096">
                <g id="Group_2095" data-name="Group 2095">
                  <g id="Group_2094" data-name="Group 2094">
                    <g id="Group_2093" data-name="Group 2093">
                      <g id="Group_2092" data-name="Group 2092">
                        <g id="Group_2091" data-name="Group 2091">
                          <g id="Group_2090" data-name="Group 2090">
                            <g id="Group_2089" data-name="Group 2089">
                              <path id="Path_1592" data-name="Path 1592" d="M426.892,1426.05a9.427,9.427,0,0,1-1.414,1.645c-.915.966-2.2,2.273-3.643,3.693s-2.767,2.686-3.745,3.584a9.131,9.131,0,0,1-1.656,1.379,9.074,9.074,0,0,1,1.407-1.637c.915-.966,2.2-2.277,3.651-3.7s2.774-2.692,3.751-3.591A8.994,8.994,0,0,1,426.892,1426.05Z" transform="translate(-416.431 -1426.046)" fill="#d9d9d8"/>
                            </g>
                          </g>
                        </g>
                      </g>
                    </g>
                  </g>
                </g>
              </g>
            </g>
          </g>
        </g>
      </g>
      <g id="Group_2112" data-name="Group 2112" transform="translate(67.871 71)">
        <g id="Group_2111" data-name="Group 2111">
          <g id="Group_2110" data-name="Group 2110">
            <g id="Group_2109" data-name="Group 2109">
              <g id="Group_2108" data-name="Group 2108">
                <g id="Group_2107" data-name="Group 2107">
                  <g id="Group_2106" data-name="Group 2106">
                    <g id="Group_2105" data-name="Group 2105">
                      <g id="Group_2104" data-name="Group 2104">
                        <g id="Group_2103" data-name="Group 2103">
                          <g id="Group_2102" data-name="Group 2102">
                            <g id="Group_2101" data-name="Group 2101">
                              <path id="Path_1593" data-name="Path 1593" d="M512.933,1425.841a9.382,9.382,0,0,1,1.645,1.414c.966.916,2.273,2.2,3.693,3.643s2.686,2.767,3.584,3.744a9.159,9.159,0,0,1,1.38,1.657,9.164,9.164,0,0,1-1.638-1.407c-.966-.916-2.276-2.205-3.7-3.651s-2.693-2.774-3.591-3.752A8.943,8.943,0,0,1,512.933,1425.841Z" transform="translate(-512.93 -1425.839)" fill="#d9d9d8"/>
                            </g>
                          </g>
                        </g>
                      </g>
                    </g>
                  </g>
                </g>
              </g>
            </g>
          </g>
        </g>
      </g>
      <g id="Group_2124" data-name="Group 2124" transform="translate(67.715 0.863)">
        <g id="Group_2123" data-name="Group 2123">
          <g id="Group_2122" data-name="Group 2122">
            <g id="Group_2121" data-name="Group 2121">
              <g id="Group_2120" data-name="Group 2120">
                <g id="Group_2119" data-name="Group 2119">
                  <g id="Group_2118" data-name="Group 2118">
                    <g id="Group_2117" data-name="Group 2117">
                      <g id="Group_2116" data-name="Group 2116">
                        <g id="Group_2115" data-name="Group 2115">
                          <g id="Group_2114" data-name="Group 2114">
                            <g id="Group_2113" data-name="Group 2113">
                              <path id="Path_1594" data-name="Path 1594" d="M512.711,1336.275a9.4,9.4,0,0,1,1.414-1.644c.915-.966,2.2-2.273,3.643-3.693s2.767-2.686,3.744-3.585a9.1,9.1,0,0,1,1.657-1.379,9.132,9.132,0,0,1-1.407,1.637c-.916.966-2.205,2.277-3.652,3.7s-2.773,2.692-3.751,3.59A8.94,8.94,0,0,1,512.711,1336.275Z" transform="translate(-512.708 -1325.971)" fill="#d9d9d8"/>
                            </g>
                          </g>
                        </g>
                      </g>
                    </g>
                  </g>
                </g>
              </g>
            </g>
          </g>
        </g>
      </g>
      <g id="Group_2136" data-name="Group 2136" transform="translate(0.101 0.854)">
        <g id="Group_2135" data-name="Group 2135">
          <g id="Group_2134" data-name="Group 2134">
            <g id="Group_2133" data-name="Group 2133">
              <g id="Group_2132" data-name="Group 2132">
                <g id="Group_2131" data-name="Group 2131">
                  <g id="Group_2130" data-name="Group 2130">
                    <g id="Group_2129" data-name="Group 2129">
                      <g id="Group_2128" data-name="Group 2128">
                        <g id="Group_2127" data-name="Group 2127">
                          <g id="Group_2126" data-name="Group 2126">
                            <g id="Group_2125" data-name="Group 2125">
                              <path id="Path_1595" data-name="Path 1595" d="M426.736,1336.418a9.38,9.38,0,0,1-1.645-1.415c-.966-.915-2.273-2.2-3.693-3.643s-2.686-2.767-3.584-3.744a9.133,9.133,0,0,1-1.379-1.656,9.089,9.089,0,0,1,1.637,1.406c.966.915,2.277,2.205,3.7,3.652s2.692,2.774,3.59,3.751A8.973,8.973,0,0,1,426.736,1336.418Z" transform="translate(-416.431 -1325.957)" fill="#d9d9d8"/>
                            </g>
                          </g>
                        </g>
                      </g>
                    </g>
                  </g>
                </g>
              </g>
            </g>
          </g>
        </g>
      </g>
      <g id="Group_2148" data-name="Group 2148" transform="translate(10.308 10.755)">
        <g id="Group_2147" data-name="Group 2147">
          <g id="Group_2146" data-name="Group 2146">
            <g id="Group_2145" data-name="Group 2145">
              <g id="Group_2144" data-name="Group 2144">
                <g id="Group_2143" data-name="Group 2143">
                  <g id="Group_2142" data-name="Group 2142">
                    <g id="Group_2141" data-name="Group 2141">
                      <g id="Group_2140" data-name="Group 2140">
                        <g id="Group_2139" data-name="Group 2139">
                          <g id="Group_2138" data-name="Group 2138">
                            <g id="Group_2137" data-name="Group 2137">
                              <path id="Path_1596" data-name="Path 1596" d="M488.375,1400.052a2.642,2.642,0,0,1-.012-.29c0-.2-.008-.478-.013-.834-.006-.749-.014-1.827-.025-3.225-.013-2.83-.034-6.948-.058-12.176-.027-10.463-.065-25.37-.112-43.218l.221.221-57.15.032h-.006l.254-.253c-.013,21.928-.026,42.442-.036,59.743l-.218-.217,41.385.111,11.624.057,3.076.025.794.012c.18,0,.273.008.277.012a1.848,1.848,0,0,1-.252.013l-.772.013-3.034.025-11.574.057-41.524.112H431v-.219c-.01-17.3-.022-37.815-.036-59.743v-.253h.259l57.15.032h.222v.221c-.046,17.907-.085,32.862-.112,43.359-.025,5.207-.044,9.308-.058,12.126-.011,1.381-.019,2.443-.025,3.182-.006.346-.01.613-.013.811A1.921,1.921,0,0,1,488.375,1400.052Z" transform="translate(-430.966 -1340.055)" fill="#d9d9d8"/>
                            </g>
                          </g>
                        </g>
                      </g>
                    </g>
                  </g>
                </g>
              </g>
            </g>
          </g>
        </g>
      </g>
      <g id="Group_2159" data-name="Group 2159" transform="translate(29.656 31.318)">
        <g id="Group_2158" data-name="Group 2158">
          <g id="Group_2157" data-name="Group 2157">
            <g id="Group_2156" data-name="Group 2156">
              <g id="Group_2155" data-name="Group 2155">
                <g id="Group_2154" data-name="Group 2154">
                  <g id="Group_2153" data-name="Group 2153">
                    <g id="Group_2152" data-name="Group 2152">
                      <g id="Group_2151" data-name="Group 2151">
                        <g id="Group_2150" data-name="Group 2150">
                          <g id="Group_2149" data-name="Group 2149">
                            <rect id="Rectangle_96" data-name="Rectangle 96" width="19.124" height="19.124" fill="#e6e6e6"/>
                          </g>
                        </g>
                      </g>
                    </g>
                  </g>
                </g>
              </g>
            </g>
          </g>
        </g>
      </g>
    </g>
    <g id="Group_2322" data-name="Group 2322" transform="translate(142.836 240.306)">
      <g id="Group_2168" data-name="Group 2168" transform="translate(105.264 16.231)">
        <g id="Group_2167" data-name="Group 2167" transform="translate(0 0)">
          <g id="Group_2166" data-name="Group 2166">
            <g id="Group_2165" data-name="Group 2165">
              <g id="Group_2164" data-name="Group 2164">
                <g id="Group_2163" data-name="Group 2163">
                  <g id="Group_2162" data-name="Group 2162">
                    <g id="Group_2161" data-name="Group 2161">
                      <rect id="Rectangle_97" data-name="Rectangle 97" width="8.747" height="43.526" transform="translate(0 0.047) rotate(-0.307)" fill="#d9d9d8"/>
                    </g>
                  </g>
                </g>
              </g>
            </g>
          </g>
        </g>
      </g>
      <g id="Group_2194" data-name="Group 2194" transform="translate(29.319 16.224)">
        <g id="Group_2176" data-name="Group 2176" transform="translate(0.165 0.121)">
          <g id="Group_2175" data-name="Group 2175" transform="translate(0 0)">
            <g id="Group_2174" data-name="Group 2174">
              <g id="Group_2173" data-name="Group 2173">
                <g id="Group_2172" data-name="Group 2172">
                  <g id="Group_2171" data-name="Group 2171">
                    <g id="Group_2170" data-name="Group 2170">
                      <g id="Group_2169" data-name="Group 2169">
                        <rect id="Rectangle_98" data-name="Rectangle 98" width="22.652" height="24.029" transform="matrix(1, -0.005, 0.005, 1, 0, 0.121)" fill="#e6e6e6"/>
                      </g>
                    </g>
                  </g>
                </g>
              </g>
            </g>
          </g>
        </g>
        <g id="Group_2184" data-name="Group 2184" transform="translate(22.709 0)">
          <g id="Group_2183" data-name="Group 2183" transform="translate(0)">
            <g id="Group_2182" data-name="Group 2182">
              <g id="Group_2181" data-name="Group 2181">
                <g id="Group_2180" data-name="Group 2180">
                  <g id="Group_2179" data-name="Group 2179">
                    <g id="Group_2178" data-name="Group 2178">
                      <g id="Group_2177" data-name="Group 2177">
                        <rect id="Rectangle_99" data-name="Rectangle 99" width="22.652" height="24.029" transform="translate(0 0.121) rotate(-0.306)" fill="#f2f3f3"/>
                      </g>
                    </g>
                  </g>
                </g>
              </g>
            </g>
          </g>
        </g>
        <g id="Group_2193" data-name="Group 2193" transform="translate(0 6.157)">
          <g id="Group_2192" data-name="Group 2192">
            <g id="Group_2191" data-name="Group 2191">
              <g id="Group_2190" data-name="Group 2190">
                <g id="Group_2189" data-name="Group 2189">
                  <g id="Group_2188" data-name="Group 2188">
                    <g id="Group_2187" data-name="Group 2187">
                      <g id="Group_2186" data-name="Group 2186">
                        <g id="Group_2185" data-name="Group 2185">
                          <path id="Path_1597" data-name="Path 1597" d="M194.754,1328.039q22.58.186,45.2-.208a.241.241,0,0,0,0-.481c-15.053-.083-30.145-.009-45.2.277a.206.206,0,0,0,0,.413Z" transform="translate(-194.553 -1327.317)" fill="#d9d9d8"/>
                        </g>
                      </g>
                    </g>
                  </g>
                </g>
              </g>
            </g>
          </g>
        </g>
      </g>
      <g id="Group_2220" data-name="Group 2220" transform="translate(15.19 39.753)">
        <g id="Group_2202" data-name="Group 2202" transform="translate(0.171 0.219)">
          <g id="Group_2201" data-name="Group 2201" transform="translate(0 0)">
            <g id="Group_2200" data-name="Group 2200">
              <g id="Group_2199" data-name="Group 2199">
                <g id="Group_2198" data-name="Group 2198">
                  <g id="Group_2197" data-name="Group 2197">
                    <g id="Group_2196" data-name="Group 2196">
                      <g id="Group_2195" data-name="Group 2195">
                        <rect id="Rectangle_100" data-name="Rectangle 100" width="41.155" height="19.582" transform="matrix(1, -0.005, 0.005, 1, 0, 0.22)" fill="#e6e6e6"/>
                      </g>
                    </g>
                  </g>
                </g>
              </g>
            </g>
          </g>
        </g>
        <g id="Group_2210" data-name="Group 2210" transform="translate(41.131 0)">
          <g id="Group_2209" data-name="Group 2209">
            <g id="Group_2208" data-name="Group 2208">
              <g id="Group_2207" data-name="Group 2207">
                <g id="Group_2206" data-name="Group 2206">
                  <g id="Group_2205" data-name="Group 2205">
                    <g id="Group_2204" data-name="Group 2204">
                      <g id="Group_2203" data-name="Group 2203">
                        <rect id="Rectangle_101" data-name="Rectangle 101" width="41.155" height="19.582" transform="translate(0 0.221) rotate(-0.307)" fill="#f2f3f3"/>
                      </g>
                    </g>
                  </g>
                </g>
              </g>
            </g>
          </g>
        </g>
        <g id="Group_2219" data-name="Group 2219" transform="translate(0 4.924)">
          <g id="Group_2218" data-name="Group 2218">
            <g id="Group_2217" data-name="Group 2217">
              <g id="Group_2216" data-name="Group 2216">
                <g id="Group_2215" data-name="Group 2215">
                  <g id="Group_2214" data-name="Group 2214">
                    <g id="Group_2213" data-name="Group 2213">
                      <g id="Group_2212" data-name="Group 2212">
                        <g id="Group_2211" data-name="Group 2211">
                          <path id="Path_1598" data-name="Path 1598" d="M175.374,1358.862c27.34.309,54.776.031,82.115-.406a.241.241,0,0,0,0-.481c-27.342-.144-54.779-.128-82.114.474a.207.207,0,0,0,0,.413Z" transform="translate(-175.173 -1357.9)" fill="#d9d9d8"/>
                        </g>
                      </g>
                    </g>
                  </g>
                </g>
              </g>
            </g>
          </g>
        </g>
      </g>
      <g id="Group_2242" data-name="Group 2242" transform="translate(0 59.774)">
        <g id="Group_2227" data-name="Group 2227" transform="translate(0 0)">
          <g id="Group_2226" data-name="Group 2226">
            <g id="Group_2225" data-name="Group 2225">
              <g id="Group_2224" data-name="Group 2224">
                <g id="Group_2223" data-name="Group 2223">
                  <g id="Group_2222" data-name="Group 2222">
                    <g id="Group_2221" data-name="Group 2221">
                      <rect id="Rectangle_102" data-name="Rectangle 102" width="159.446" height="7.015" fill="#d9d9d8"/>
                    </g>
                  </g>
                </g>
              </g>
            </g>
          </g>
        </g>
        <g id="Group_2234" data-name="Group 2234" transform="translate(26.105 3.373)">
          <g id="Group_2233" data-name="Group 2233">
            <g id="Group_2232" data-name="Group 2232">
              <g id="Group_2231" data-name="Group 2231">
                <g id="Group_2230" data-name="Group 2230">
                  <g id="Group_2229" data-name="Group 2229">
                    <g id="Group_2228" data-name="Group 2228">
                      <rect id="Rectangle_103" data-name="Rectangle 103" width="6.473" height="23.938" fill="#d9d9d8"/>
                    </g>
                  </g>
                </g>
              </g>
            </g>
          </g>
        </g>
        <g id="Group_2241" data-name="Group 2241" transform="translate(122.729 3.373)">
          <g id="Group_2240" data-name="Group 2240">
            <g id="Group_2239" data-name="Group 2239">
              <g id="Group_2238" data-name="Group 2238">
                <g id="Group_2237" data-name="Group 2237">
                  <g id="Group_2236" data-name="Group 2236">
                    <g id="Group_2235" data-name="Group 2235">
                      <rect id="Rectangle_104" data-name="Rectangle 104" width="6.473" height="23.938" fill="#d9d9d8"/>
                    </g>
                  </g>
                </g>
              </g>
            </g>
          </g>
        </g>
      </g>
      <g id="Group_2250" data-name="Group 2250" transform="translate(113.8 0)">
        <g id="Group_2249" data-name="Group 2249" transform="translate(0 0)">
          <g id="Group_2248" data-name="Group 2248">
            <g id="Group_2247" data-name="Group 2247">
              <g id="Group_2246" data-name="Group 2246">
                <g id="Group_2245" data-name="Group 2245">
                  <g id="Group_2244" data-name="Group 2244">
                    <g id="Group_2243" data-name="Group 2243">
                      <rect id="Rectangle_105" data-name="Rectangle 105" width="8.747" height="59.863" transform="matrix(1, -0.005, 0.005, 1, 0, 0.047)" fill="#e6e6e6"/>
                    </g>
                  </g>
                </g>
              </g>
            </g>
          </g>
        </g>
      </g>
      <g id="Group_2299" data-name="Group 2299" transform="translate(122.531 11.143)">
        <g id="Group_2258" data-name="Group 2258" transform="translate(0.091 0)">
          <g id="Group_2257" data-name="Group 2257" transform="translate(0)">
            <g id="Group_2256" data-name="Group 2256">
              <g id="Group_2255" data-name="Group 2255">
                <g id="Group_2254" data-name="Group 2254">
                  <g id="Group_2253" data-name="Group 2253">
                    <g id="Group_2252" data-name="Group 2252">
                      <g id="Group_2251" data-name="Group 2251">
                        <rect id="Rectangle_106" data-name="Rectangle 106" width="13.592" height="48.512" transform="translate(0 0.073) rotate(-0.308)" fill="#f2f3f3"/>
                      </g>
                    </g>
                  </g>
                </g>
              </g>
            </g>
          </g>
        </g>
        <g id="Group_2266" data-name="Group 2266" transform="translate(0 9.111)">
          <g id="Group_2265" data-name="Group 2265">
            <g id="Group_2264" data-name="Group 2264">
              <g id="Group_2263" data-name="Group 2263">
                <g id="Group_2262" data-name="Group 2262">
                  <g id="Group_2261" data-name="Group 2261">
                    <g id="Group_2260" data-name="Group 2260">
                      <g id="Group_2259" data-name="Group 2259">
                        <path id="Path_1599" data-name="Path 1599" d="M336,1324.636a49.259,49.259,0,0,1-6.8.236,49.257,49.257,0,0,1-6.8-.236,49.305,49.305,0,0,1,6.8-.235A49.308,49.308,0,0,1,336,1324.636Z" transform="translate(-322.406 -1324.401)" fill="#d9d9d8"/>
                      </g>
                    </g>
                  </g>
                </g>
              </g>
            </g>
          </g>
        </g>
        <g id="Group_2274" data-name="Group 2274" transform="translate(0 7.073)">
          <g id="Group_2273" data-name="Group 2273">
            <g id="Group_2272" data-name="Group 2272">
              <g id="Group_2271" data-name="Group 2271">
                <g id="Group_2270" data-name="Group 2270">
                  <g id="Group_2269" data-name="Group 2269">
                    <g id="Group_2268" data-name="Group 2268">
                      <g id="Group_2267" data-name="Group 2267">
                        <path id="Path_1600" data-name="Path 1600" d="M336,1321.842a49.371,49.371,0,0,1-6.8.235,49.369,49.369,0,0,1-6.8-.235,49.119,49.119,0,0,1,6.8-.236A49.122,49.122,0,0,1,336,1321.842Z" transform="translate(-322.406 -1321.606)" fill="#d9d9d8"/>
                      </g>
                    </g>
                  </g>
                </g>
              </g>
            </g>
          </g>
        </g>
        <g id="Group_2282" data-name="Group 2282" transform="translate(0 40.978)">
          <g id="Group_2281" data-name="Group 2281">
            <g id="Group_2280" data-name="Group 2280">
              <g id="Group_2279" data-name="Group 2279">
                <g id="Group_2278" data-name="Group 2278">
                  <g id="Group_2277" data-name="Group 2277">
                    <g id="Group_2276" data-name="Group 2276">
                      <g id="Group_2275" data-name="Group 2275">
                        <path id="Path_1601" data-name="Path 1601" d="M336,1368.347a49.308,49.308,0,0,1-6.8.235,49.305,49.305,0,0,1-6.8-.235,49.132,49.132,0,0,1,6.8-.235A49.134,49.134,0,0,1,336,1368.347Z" transform="translate(-322.406 -1368.111)" fill="#d9d9d8"/>
                      </g>
                    </g>
                  </g>
                </g>
              </g>
            </g>
          </g>
        </g>
        <g id="Group_2290" data-name="Group 2290" transform="translate(0 38.939)">
          <g id="Group_2289" data-name="Group 2289">
            <g id="Group_2288" data-name="Group 2288">
              <g id="Group_2287" data-name="Group 2287">
                <g id="Group_2286" data-name="Group 2286">
                  <g id="Group_2285" data-name="Group 2285">
                    <g id="Group_2284" data-name="Group 2284">
                      <g id="Group_2283" data-name="Group 2283">
                        <path id="Path_1602" data-name="Path 1602" d="M336,1365.55a49.122,49.122,0,0,1-6.8.236,49.119,49.119,0,0,1-6.8-.236,49.316,49.316,0,0,1,6.8-.235A49.318,49.318,0,0,1,336,1365.55Z" transform="translate(-322.406 -1365.315)" fill="#d9d9d8"/>
                      </g>
                    </g>
                  </g>
                </g>
              </g>
            </g>
          </g>
        </g>
        <g id="Group_2298" data-name="Group 2298" transform="translate(6.779 12.866)">
          <g id="Group_2297" data-name="Group 2297">
            <g id="Group_2296" data-name="Group 2296">
              <g id="Group_2295" data-name="Group 2295">
                <g id="Group_2294" data-name="Group 2294">
                  <g id="Group_2293" data-name="Group 2293">
                    <g id="Group_2292" data-name="Group 2292">
                      <g id="Group_2291" data-name="Group 2291">
                        <path id="Path_1603" data-name="Path 1603" d="M331.94,1351.414c-.131,0-.236-4.894-.236-10.931s.1-10.931.236-10.931.235,4.893.235,10.931S332.07,1351.414,331.94,1351.414Z" transform="translate(-331.705 -1329.552)" fill="#d9d9d8"/>
                      </g>
                    </g>
                  </g>
                </g>
              </g>
            </g>
          </g>
        </g>
      </g>
      <g id="Group_2307" data-name="Group 2307" transform="translate(136.27 23.056)">
        <g id="Group_2306" data-name="Group 2306" transform="translate(0 0)">
          <g id="Group_2305" data-name="Group 2305">
            <g id="Group_2304" data-name="Group 2304">
              <g id="Group_2303" data-name="Group 2303">
                <g id="Group_2302" data-name="Group 2302">
                  <g id="Group_2301" data-name="Group 2301">
                    <g id="Group_2300" data-name="Group 2300">
                      <rect id="Rectangle_107" data-name="Rectangle 107" width="14.795" height="36.617" fill="#e6e6e6"/>
                    </g>
                  </g>
                </g>
              </g>
            </g>
          </g>
        </g>
      </g>
      <g id="Group_2314" data-name="Group 2314" transform="translate(115.53 7.706)">
        <g id="Group_2313" data-name="Group 2313" transform="translate(0)">
          <g id="Group_2312" data-name="Group 2312">
            <g id="Group_2311" data-name="Group 2311">
              <g id="Group_2310" data-name="Group 2310">
                <g id="Group_2309" data-name="Group 2309">
                  <g id="Group_2308" data-name="Group 2308">
                    <path id="Path_1604" data-name="Path 1604" d="M317.832,1309.7a2.514,2.514,0,1,1-2.514-2.514A2.514,2.514,0,0,1,317.832,1309.7Z" transform="translate(-312.804 -1307.19)" fill="#d9d9d8"/>
                  </g>
                </g>
              </g>
            </g>
          </g>
        </g>
      </g>
      <g id="Group_2321" data-name="Group 2321" transform="translate(117.267 17.135)">
        <g id="Group_2320" data-name="Group 2320" transform="translate(0 0)">
          <g id="Group_2319" data-name="Group 2319">
            <g id="Group_2318" data-name="Group 2318">
              <g id="Group_2317" data-name="Group 2317">
                <g id="Group_2316" data-name="Group 2316">
                  <g id="Group_2315" data-name="Group 2315">
                    <rect id="Rectangle_108" data-name="Rectangle 108" width="1.554" height="35.611" fill="#d9d9d8"/>
                  </g>
                </g>
              </g>
            </g>
          </g>
        </g>
      </g>
    </g>
    <g id="Group_25" data-name="Group 25" transform="translate(182.796 167.352)">
      <path id="Path_116" data-name="Path 116" d="M173.3,0c95.713,0,173.3,11.34,173.3,25.329s-77.59,25.329-173.3,25.329S0,39.317,0,25.329,77.59,0,173.3,0Z" transform="translate(0 427.991)" fill="#bcaaa4" opacity="0.09"/>
      <path id="Path_1" data-name="Path 1" d="M308.216,148.143l-3.4-18.149a10.728,10.728,0,0,1,3.243-9.879c6.255-5.751,18.813-14.829,33.831-12.438,29.684,4.726,28.355,30.128,28.355,30.128h0c-1.329,21.561-12.7,39.578-12.7,39.578Z" transform="translate(-63.788 -34.578)" fill="#23201f"/>
      <g id="Group_5" data-name="Group 5" transform="translate(251.94 209.913)">
        <g id="Group_1" data-name="Group 1" transform="translate(48.281)">
          <path id="Path_2" data-name="Path 2" d="M361.963,277.892l36.773-.073a12.94,12.94,0,0,0,12.914-12.966l-.051-25.62a12.939,12.939,0,0,0-12.965-12.914l-36.773.073a5.731,5.731,0,0,0-5.721,5.744l.078,40.034A5.733,5.733,0,0,0,361.963,277.892Z" transform="translate(-356.141 -226.311)" fill="#b1d5fe"/>
          <path id="Path_3" data-name="Path 3" d="M397.642,277.812h0a9.1,9.1,0,0,0,9.081-9.117l-.066-33.3a9.1,9.1,0,0,0-9.117-9.081h0a9.1,9.1,0,0,0-9.081,9.117l.066,33.3A9.1,9.1,0,0,0,397.642,277.812Z" transform="translate(-351.205 -226.312)" fill="#88bffe"/>
        </g>
        <g id="Group_4" data-name="Group 4" transform="translate(0 123.253)">
          <g id="Group_2" data-name="Group 2" transform="translate(38.386 15.646)">
            <rect id="Rectangle_33" data-name="Rectangle 33" width="9.98" height="76.585" transform="matrix(1, -0.002, 0.002, 1, 0.052, 26.423)" fill="#b0bec5"/>
            <rect id="Rectangle_34" data-name="Rectangle 34" width="9.98" height="26.404" transform="translate(0 0.02) rotate(-0.113)" fill="#90a4ae"/>
          </g>
          <g id="Group_3" data-name="Group 3" transform="translate(0 0)">
            <rect id="Rectangle_35" data-name="Rectangle 35" width="86.692" height="21.816" rx="7.785" transform="translate(86.735 21.815) rotate(179.887)" fill="#b1d5fe"/>
            <rect id="Rectangle_36" data-name="Rectangle 36" width="60.702" height="21.816" rx="7.785" transform="translate(86.735 21.815) rotate(179.887)" fill="#b1d5fe"/>
          </g>
          <path id="Path_4" data-name="Path 4" d="M374.4,427.58l-37.071.073a10.321,10.321,0,0,0-10.3,10.341h0l57.712-.113h0A10.321,10.321,0,0,0,374.4,427.58Z" transform="translate(-312.306 -318.826)" fill="#90a4ae"/>
        </g>
      </g>
      <g id="Group_6" data-name="Group 6" transform="translate(102.565 281.558)">
        <path id="Path_5" data-name="Path 5" d="M184.673,288.721l.318,161.353c0,2.211,1.531,4,3.409,4s3.4-1.8,3.394-4.01l-.317-161.353Z" transform="translate(-184.673 -288.428)" fill="#69acfd"/>
        <path id="Path_6" data-name="Path 6" d="M308.014,288.478l.317,161.353c0,2.211,1.531,4,3.41,4s3.4-1.8,3.394-4.009l-.318-161.353Z" transform="translate(-165.835 -288.465)" fill="#69acfd"/>
      </g>
      <g id="Group_7" data-name="Group 7" transform="translate(182.261 295.029)">
        <path id="Path_7" data-name="Path 7" d="M290.347,409.6l.028,14.195-10.7.021-2.322-14.19Z" transform="translate(-250.215 -283.436)" fill="#b56654"/>
        <path id="Path_8" data-name="Path 8" d="M256.076,323.666c8.969-6.871,35.537-8.115,46.111-9.332,2.436-.28,34.595,2.258,35.129.439,1.081-3.671.87-7.172.995-10.913,5.777,2.689,22.346-1.424,32.757-1.961a6.348,6.348,0,0,0,4.195-1.743l.129,0c3.2,10.507,1.707,29.192-4.715,38.166-6.2,8.67-17.194,11.137-27.272,11.427-10.705.31-21.4-.495-32.065-1.288-5.179-.386-25.006-1.009-25.006-1.009,17.545,27.112,8.432,74.527,8.636,79.547-5.97,1.356-9.8,1.742-16.006.5C278.965,427.5,250.7,327.781,256.076,323.666Z" transform="translate(-253.568 -300.151)" fill="#383838"/>
        <path id="Path_9" data-name="Path 9" d="M293.97,422.476s5.139,3.752,5.161,14.869l-45.321.089a8.151,8.151,0,0,1,7.339-7.111c6.839-.954,21.414-12.121,21.414-12.121l1.284,1.478a7.725,7.725,0,0,0,5.594,2.657Z" transform="translate(-253.81 -282.121)" fill="#e0e0e0"/>
      </g>
      <g id="Group_8" data-name="Group 8" transform="translate(204.303 302.491)">
        <path id="Path_10" data-name="Path 10" d="M309.47,413.515l.028,14.195-10.7.021-2.322-14.19Z" transform="translate(-269.337 -290.299)" fill="#b56654"/>
        <path id="Path_11" data-name="Path 11" d="M275.823,330.137c8.969-6.87,35.537-8.114,46.111-9.331,2.436-.281,17.681.182,18.215-1.637,1.081-3.671.87-7.171.995-10.913a44.317,44.317,0,0,0,18.663,3.8c10.463-.008,20.6-3.146,31.008-3.682a6.357,6.357,0,0,0,4.2-1.744c.042,0,.085,0,.128,0,3.2,10.506,1.707,29.191-4.715,38.166-6.2,8.67-17.194,11.135-27.272,11.427-10.705.309-21.4-.494-32.065-1.289-5.178-.385-25.006-1.009-25.006-1.009,17.544,27.113,8.432,74.529,8.636,79.549-5.97,1.356-9.8,1.742-16.006.5C298.712,433.973,270.451,334.253,275.823,330.137Z" transform="translate(-272.594 -306.624)" fill="#4d4d4d"/>
        <path id="Path_12" data-name="Path 12" d="M313.093,426.4s5.138,3.752,5.16,14.869l-45.321.089a8.154,8.154,0,0,1,7.341-7.112c6.838-.953,21.413-12.12,21.413-12.12l1.284,1.478a7.729,7.729,0,0,0,5.6,2.656Z" transform="translate(-272.932 -288.984)" fill="#f5f5f5"/>
      </g>
      <g id="Group_11" data-name="Group 11" transform="translate(114.232 118.072)">
        <g id="Group_10" data-name="Group 10">
          <path id="Path_13" data-name="Path 13" d="M221.315,190.515a165.89,165.89,0,0,1,6.385,33.993A193.225,193.225,0,0,1,254.9,269.6c-3.252,2.563-3.835,3.3-7.569,5.09A97.359,97.359,0,0,1,231.655,262.1a114.638,114.638,0,0,1-21.81-30.286c-5.99-12.082-7.234-26.173-8.123-39.628Z" transform="translate(-193.737 -139.939)" fill="#b56654"/>
          <path id="Path_14" data-name="Path 14" d="M225.885,197.567a109.383,109.383,0,0,1-25-1.787c-.112-1.6-.157-3.208-.171-4.814,7.694,3.005,16.449,3.6,24.672,4.139Z" transform="translate(-193.891 -139.87)" fill="#b2dfdb"/>
          <path id="Path_15" data-name="Path 15" d="M219.876,170.265l6.414,31.61c-8.222-.544-16.977-1.134-24.672-4.139-.092-10.693-9.881-39.519-5.85-49.422,1.145-2.81,5.3-1.821,9.888,1.032A32.005,32.005,0,0,1,219.876,170.265Z" transform="translate(-194.795 -146.64)" fill="#80cbc4"/>
          <g id="Group_9" data-name="Group 9" transform="translate(52.858 127.513)">
            <path id="Path_16" data-name="Path 16" d="M247.668,257.258a29.38,29.38,0,0,1,7.976,2.357,8.215,8.215,0,0,1,4.679,5.963,4.254,4.254,0,0,1-.216,2.133,8.146,8.146,0,0,1-2.65,2.975c-1.636,1.323-3.432,2.718-5.444,2.972A7.394,7.394,0,0,1,247.5,272.5c-3.814-2.119-6.99-5.631-6.844-10.063Z" transform="translate(-240.65 -257.258)" fill="#b56654"/>
            <path id="Path_17" data-name="Path 17" d="M253.429,263.859c.738-2.51,3.666-2.56,5.768-1.763,3.018,1.143,4.693,4.054,5.454,7.042.579,2.274-2.854,3.6-3.47,1.289-.482-1.81-1.09-3.835-2.8-4.85-1.357-.806-2.778-.353-4.225-.711C253.74,264.764,253.287,264.343,253.429,263.859Z" transform="translate(-238.702 -256.589)" fill="#b56654"/>
            <path id="Path_18" data-name="Path 18" d="M252.555,264.374c1.749-1.945,4.411-.726,5.964.9,2.228,2.334,2.483,5.684,1.879,8.707-.46,2.3-4.13,2.018-3.686-.335.347-1.84.672-3.93-.433-5.584-.876-1.312-2.353-1.518-3.5-2.465A.888.888,0,0,1,252.555,264.374Z" transform="translate(-238.857 -256.324)" fill="#b56654"/>
            <path id="Path_19" data-name="Path 19" d="M250.642,264.169c2.279-1.284,4.413.72,5.364,2.758,1.365,2.924.535,6.18-1,8.851-1.171,2.033-4.558.593-3.384-1.5.918-1.632,1.893-3.509,1.374-5.429-.41-1.523-1.744-2.19-2.531-3.455A.889.889,0,0,1,250.642,264.169Z" transform="translate(-239.176 -256.264)" fill="#b56654"/>
            <path id="Path_20" data-name="Path 20" d="M246.684,263.28c2.278-1.284,4.412.72,5.363,2.76,1.365,2.923.536,6.179-1,8.849-1.171,2.033-4.559.592-3.386-1.5.918-1.632,1.893-3.509,1.375-5.429-.41-1.523-1.745-2.19-2.531-3.455A.886.886,0,0,1,246.684,263.28Z" transform="translate(-239.781 -256.4)" fill="#b56654"/>
          </g>
        </g>
        <path id="Path_21" data-name="Path 21" d="M243.651,262.1a.443.443,0,0,1,.8-.107c1.081,2.523,4.077,5.1,6.449,1.795a.76.76,0,0,1,1.179-.154c1.879,2.139,4.151,1.754,6.526.806.113-.045.179.1.141.182-1.346,3.056-5.126,2.607-7.206.636C248.614,267.918,242.822,267.02,243.651,262.1Z" transform="translate(-187.345 -129.055)" fill="#913f36" opacity="0.94"/>
        <path id="Path_22" data-name="Path 22" d="M245.99,265.6c-.025-.139.065-.337.239-.315,1.172.146,1.489,2.109,1.045,2.994a.318.318,0,0,1-.588-.158,3.411,3.411,0,0,0-.138-1.44C246.388,266.291,246.066,266.015,245.99,265.6Z" transform="translate(-186.976 -128.52)" fill="#ffab91"/>
      </g>
      <g id="Group_14" data-name="Group 14" transform="translate(143.04 169.406)">
        <g id="Group_13" data-name="Group 13">
          <path id="Path_23" data-name="Path 23" d="M337.019,191.377A32.01,32.01,0,0,0,315.3,204.345s-29.287,43.637-33.761,51.51a193.262,193.262,0,0,0-43.678,29.411c1.869,3.7,2.085,4.611,4.716,7.809a97.457,97.457,0,0,0,19.518-4.8,114.624,114.624,0,0,0,32.55-18.259c9.523-7.624,51.253-64.721,51.774-75.4C346.567,191.581,342.379,190.725,337.019,191.377Z" transform="translate(-217.025 -191.172)" fill="#b56654"/>
          <g id="Group_12" data-name="Group 12" transform="translate(0 91.445)">
            <path id="Path_24" data-name="Path 24" d="M241.734,271.744a29.394,29.394,0,0,0-8.225-1.226,8.214,8.214,0,0,0-6.758,3.433,4.242,4.242,0,0,0-.7,2.024,8.148,8.148,0,0,0,1.147,3.816c.924,1.889,1.964,3.911,3.683,4.99a7.386,7.386,0,0,0,4.579.859c4.353-.312,8.713-2.157,10.451-6.237Z" transform="translate(-218.83 -270.501)" fill="#b56654"/>
            <path id="Path_25" data-name="Path 25" d="M232.634,275.014c.39-2.587-2.243-3.867-4.486-4.032-3.218-.236-5.965,1.7-7.915,4.085-1.485,1.818,1.067,4.471,2.6,2.632,1.2-1.437,2.606-3.017,4.586-3.216,1.57-.157,2.667.853,4.13,1.139A.889.889,0,0,0,232.634,275.014Z" transform="translate(-219.785 -270.431)" fill="#b56654"/>
            <path id="Path_26" data-name="Path 26" d="M232.942,275.756c-.764-2.5-3.692-2.52-5.787-1.7-3.005,1.176-4.649,4.1-5.376,7.1-.553,2.28,2.893,3.572,3.484,1.25.461-1.813,1.049-3.845,2.748-4.879,1.348-.82,2.773-.383,4.216-.756C232.641,276.665,233.089,276.239,232.942,275.756Z" transform="translate(-219.49 -270.032)" fill="#b56654"/>
            <path id="Path_27" data-name="Path 27" d="M234.445,276.334c-1.524-2.126-4.3-1.207-6.026.24-2.471,2.075-3.093,5.376-2.824,8.447.2,2.338,3.883,2.46,3.7.071-.143-1.866-.235-3.979,1.044-5.5,1.014-1.208,2.506-1.25,3.752-2.065A.889.889,0,0,0,234.445,276.334Z" transform="translate(-218.907 -269.802)" fill="#b56654"/>
            <path id="Path_28" data-name="Path 28" d="M238.409,277.2c-1.524-2.126-4.3-1.207-6.026.24-2.471,2.075-3.093,5.376-2.824,8.447.205,2.338,3.884,2.46,3.7.071-.143-1.867-.235-3.98,1.044-5.5,1.014-1.208,2.506-1.251,3.753-2.066A.888.888,0,0,0,238.409,277.2Z" transform="translate(-218.301 -269.67)" fill="#b56654"/>
          </g>
        </g>
        <path id="Path_29" data-name="Path 29" d="M242.4,277.8a.443.443,0,0,0-.684-.435c-2.044,1.831-5.848,2.9-6.6-1.1a.762.762,0,0,0-1.005-.637c-2.605,1.148-4.5-.159-6.256-2.022-.083-.088-.2.012-.2.106-.068,3.339,3.548,4.527,6.265,3.617C235.44,280.979,241.07,282.608,242.4,277.8Z" transform="translate(-218.585 -178.587)" fill="#b56654"/>
        <path id="Path_30" data-name="Path 30" d="M237.139,279.475c.082-.114.083-.331-.084-.385-1.125-.362-2.24,1.284-2.211,2.273a.318.318,0,0,0,.6.1,3.428,3.428,0,0,1,.733-1.247C236.484,279.936,236.892,279.823,237.139,279.475Z" transform="translate(-217.485 -177.752)" fill="#b56654"/>
      </g>
      <g id="Group_15" data-name="Group 15" transform="translate(81.103 424.251)">
        <path id="Path_31" data-name="Path 31" d="M183.274,413.3l-3.229,11.713-8.226-.846,1.225-11.919Z" transform="translate(-165.175 -412.252)" fill="#b56654"/>
        <path id="Path_32" data-name="Path 32" d="M182.593,420.726c2.545,6.079,8.7,10.917,15.774,12.4,2.718.569,5.947.9,7.395,3.045a7.03,7.03,0,0,1,.708,1.493,1.8,1.8,0,0,1-1.549,2.452,103.114,103.114,0,0,1-38.865-5.258,35.949,35.949,0,0,1,3.069-10.911,11.529,11.529,0,0,1,3.216-4.7,11.829,11.829,0,0,1,3.02.829,11.532,11.532,0,0,0,7.187.664Z" transform="translate(-166.055 -411.184)" fill="#e0e0e0"/>
      </g>
      <g id="Group_16" data-name="Group 16" transform="translate(33.247 430.009)">
        <path id="Path_33" data-name="Path 33" d="M141.757,418.3l-3.229,11.713-8.226-.846,1.225-11.92Z" transform="translate(-123.659 -417.247)" fill="#b56654"/>
        <path id="Path_34" data-name="Path 34" d="M141.076,425.721c2.546,6.08,8.7,10.918,15.774,12.4,2.718.569,5.947.9,7.4,3.046a7.086,7.086,0,0,1,.708,1.493,1.8,1.8,0,0,1-1.549,2.452,103.106,103.106,0,0,1-38.865-5.259,35.915,35.915,0,0,1,3.067-10.909,11.552,11.552,0,0,1,3.216-4.705,11.878,11.878,0,0,1,3.02.83,11.541,11.541,0,0,0,7.187.664Z" transform="translate(-124.539 -416.179)" fill="#ebe9e9"/>
      </g>
      <path id="Path_35" data-name="Path 35" d="M220.085,269.428c-2.914,26.362-3.386,92.346-12.4,115.274-4.274,10.874-13.042,42.9-15.555,54.32-5.089-.22-10.191.1-15.267-.331,3.8-57.378,1.876-124.9,1.316-146.77l-6.528-.671c-3.18,21.826-2.014,77.575-9.5,96.6-4.275,10.874-15.494,45.477-18.007,56.894-5.089-.22-10.19.1-15.267-.331C132.16,394.9,131.114,317.045,130.346,287l-1.512-23.568C159.409,270.32,190.021,275.484,220.085,269.428Z" transform="translate(-90.636 -10.729)" fill="#add7d4"/>
      <path id="Path_36" data-name="Path 36" d="M223.749,161.317c2.423,21.252,2.182,43.412,2.006,65.2-.05,6.271-.425,68.948-2.912,69.729-19.856,6.226-76.923-1.427-95.585-9.826-2.194-.987,7.372-69.663,8.519-76.9,2.159-13.626,5.016-27.781,8.415-41.083,3.134-12.266,7.728-22.583,16.3-28.011,6.693-4.236,14.007-4.5,21.051-5.056C216.826,132.583,223.163,156.187,223.749,161.317Z" transform="translate(-90.927 -30.324)" fill="#9ad2cd"/>
      <path id="Path_37" data-name="Path 37" d="M306.794,212.573c-2.424,21.252-2.182,43.412-2.007,65.2.051,6.27,4.169,53.887,6.657,54.667,19.856,6.226,62.149,17.4,80.812,9,2.194-.988,3.658-73.428,2.511-80.666-2.16-13.626-5.017-27.782-8.415-41.083-3.134-12.266-7.729-22.583-16.3-28.011-6.693-4.236-14.007-4.5-21.05-5.056C313.715,183.839,307.378,207.443,306.794,212.573Z" transform="translate(-63.779 -22.496)" fill="#649ce4"/>
      <path id="Path_38" data-name="Path 38" d="M179.56,345.922c1.734.715,2.837,3,3.922,4.488,1.4,1.923,2.814,3.827,4.055,5.863a.583.583,0,0,1-.9.745c-1.616-1.733-3.065-3.6-4.535-5.465-1.132-1.435-3.052-3.127-3.3-5.007A.566.566,0,0,1,179.56,345.922Z" transform="translate(-83.004 1.862)" fill="#4db6ac"/>
      <path id="Path_39" data-name="Path 39" d="M181.707,351.89a9.7,9.7,0,0,1,1.208,3.2c.335,1.093.6,2.193.865,3.307a.6.6,0,0,1-1.135.356c-.511-1.117-.994-2.228-1.427-3.38a8.742,8.742,0,0,1-.884-3.059A.781.781,0,0,1,181.707,351.89Z" transform="translate(-82.771 2.739)" fill="#4db6ac"/>
      <path id="Path_40" data-name="Path 40" d="M140.091,350.845c1.316.847,1.948,2.747,2.687,4.1.92,1.691,1.814,3.373,2.595,5.137.294.666-.64,1.292-1.086.687-1.135-1.544-2.145-3.149-3.153-4.783-.807-1.309-2.154-2.806-2.25-4.384A.78.78,0,0,1,140.091,350.845Z" transform="translate(-89.102 2.6)" fill="#4db6ac"/>
      <path id="Path_41" data-name="Path 41" d="M139.681,356.171a20.074,20.074,0,0,1,2.123,4.354.5.5,0,0,1-.91.423,20.228,20.228,0,0,1-1.761-4.523A.313.313,0,0,1,139.681,356.171Z" transform="translate(-89.064 3.416)" fill="#4db6ac"/>
      <path id="Path_42" data-name="Path 42" d="M155.663,359.193a39.881,39.881,0,0,1,3.432-3.406c.49-.414,1.109.237.779.755a43.276,43.276,0,0,1-3.156,4.161,10.243,10.243,0,0,1-3.191,3.012.53.53,0,0,1-.7-.676A11.363,11.363,0,0,1,155.663,359.193Z" transform="translate(-86.976 3.355)" fill="#4db6ac"/>
      <path id="Path_43" data-name="Path 43" d="M198.594,353.709a.65.65,0,0,1,.922.895,8.2,8.2,0,0,1-3.379,3.162.428.428,0,0,1-.566-.545A8.224,8.224,0,0,1,198.594,353.709Z" transform="translate(-80.448 3.037)" fill="#4db6ac"/>
      <path id="Path_44" data-name="Path 44" d="M146.189,224.318c6.369,7.886,12.449,15.933,19.347,23.289,8.139,8.68,17.709,19.873,30.123,19.116.219-.014.284.347.054.378-10.414,1.4-18.366-5.665-25.684-12.755-9.028-8.748-17.783-18.4-24.731-29.231C144.883,224.466,145.7,223.719,146.189,224.318Z" transform="translate(-88.139 -16.737)" fill="#4db6ac"/>
      <path id="Path_45" data-name="Path 45" d="M153.145,244.4c3.382,3.706,6.142,8.385,8.93,12.634.348.531-.347,1.165-.737.658-3.1-4.046-6.572-8.152-9.048-12.707C151.978,244.415,152.777,244,153.145,244.4Z" transform="translate(-87.065 -13.661)" fill="#4db6ac"/>
      <path id="Path_46" data-name="Path 46" d="M152.961,168.723c5.286.451,10.573,1.1,15.836,1.774a1.453,1.453,0,0,1-.3,2.89c-5.288-.431-10.6-.884-15.86-1.534A1.574,1.574,0,0,1,152.961,168.723Z" transform="translate(-87.208 -25.196)" fill="#b2dfdb"/>
      <g id="Group_17" data-name="Group 17" transform="translate(63.687 0)">
        <path id="Path_47" data-name="Path 47" d="M239.318,88.169c0,1.53-1.807,2.951-1.962,4.44-.158,1.518,1.315,3.282,1.005,4.749-.315,1.489-2.378,2.5-2.843,3.934-.469,1.446.6,3.479-.012,4.854s-2.847,1.947-3.6,3.252-.135,3.525-1.024,4.745-3.188,1.311-4.2,2.433-.859,3.418-1.983,4.43-3.388.62-4.612,1.511-1.546,3.165-2.858,3.924-3.439-.1-4.825.521-2.167,2.771-3.613,3.24c-1.429.465-3.337-.815-4.828-.5-1.467.31-2.693,2.256-4.211,2.414-1.489.154-3.089-1.494-4.619-1.494s-3.131,1.648-4.619,1.494c-1.518-.158-2.745-2.1-4.212-2.414-1.489-.315-3.4.965-4.828.5-1.447-.469-2.239-2.628-3.614-3.241s-3.52.234-4.825-.521-1.637-3.035-2.858-3.924-3.489-.5-4.612-1.511-.971-3.307-1.983-4.431-3.309-1.208-4.2-2.432-.264-3.433-1.022-4.745-2.984-1.866-3.6-3.252.459-3.407-.01-4.854c-.463-1.428-2.527-2.444-2.843-3.933-.31-1.467,1.163-3.231,1.005-4.749-.154-1.489-1.962-2.911-1.962-4.44s1.807-2.951,1.962-4.439c.158-1.518-1.315-3.282-1.005-4.749.316-1.49,2.379-2.5,2.843-3.934.47-1.447-.6-3.48.012-4.854s2.848-1.948,3.6-3.253.135-3.524,1.022-4.745,3.188-1.311,4.2-2.432.859-3.418,1.983-4.431,3.388-.62,4.612-1.511,1.546-3.164,2.858-3.924,3.439.1,4.825-.52,2.167-2.772,3.613-3.241c1.429-.465,3.337.816,4.828.5,1.467-.31,2.693-2.256,4.211-2.413,1.489-.156,3.09,1.494,4.62,1.494s3.13-1.65,4.618-1.5c1.518.158,2.745,2.1,4.212,2.414,1.49.316,3.4-.964,4.828-.5,1.447.469,2.239,2.628,3.614,3.241s3.52-.234,4.825.521,1.637,3.036,2.858,3.924,3.49.5,4.612,1.512.971,3.306,1.984,4.43,3.308,1.208,4.2,2.432.264,3.433,1.022,4.745,2.986,1.866,3.6,3.252-.459,3.409.01,4.854c.465,1.429,2.528,2.444,2.843,3.933.31,1.467-1.163,3.231-1.005,4.749C237.51,85.218,239.318,86.639,239.318,88.169Z" transform="translate(-150.946 -40.211)" fill="#23201f"/>
      </g>
      <path id="Path_48" data-name="Path 48" d="M193.613,126.541l-1.086,12.439c-6.187.761-11.584-2.665-16.158-7.554.551-3.822,1-7.676,1.323-10.68Z" transform="translate(-83.376 -32.522)" fill="#913f36" opacity="0.94"/>
      <path id="Path_49" data-name="Path 49" d="M208.492,95.809a2.171,2.171,0,0,1,1.354-1.433,5.333,5.333,0,0,1,2.016-.284c1.68.009,3.539.318,4.588,1.63a4.506,4.506,0,0,1,.587,3.99,6.841,6.841,0,0,1-8.9,4.616Z" transform="translate(-78.524 -36.593)" fill="#913f36"/>
      <path id="Path_50" data-name="Path 50" d="M170.931,91.942a2.171,2.171,0,0,0-1.035-1.677,5.319,5.319,0,0,0-1.916-.688c-1.646-.333-3.53-.408-4.824.663a4.511,4.511,0,0,0-1.386,3.787,6.842,6.842,0,0,0,7.774,6.33Z" transform="translate(-85.608 -37.316)" fill="#913f36"/>
      <path id="Path_51" data-name="Path 51" d="M209.793,131.045l-.228.305a19.664,19.664,0,0,1-18.524,7.554,29.383,29.383,0,0,1-4.913-1.092c-10.66-3.565-19.153-17.05-19.153-25.607a80.836,80.836,0,0,1,5.8-31.268c5.308-13.143,23.012-23.844,35.234-11.875,6.672,6.534,8.709,24.173,9.314,35.836A40.458,40.458,0,0,1,209.793,131.045Z" transform="translate(-84.811 -41.21)" fill="#b56654"/>
      <path id="Path_52" data-name="Path 52" d="M186.616,113.279c2.912,1.292,11.207,2.552,13.8,1.8.486-.141.912.2.631.6a8.866,8.866,0,0,1-8.643,3.715c-2.891-.428-6.325-2.567-6.918-5.6C185.35,113.1,186.073,113.038,186.616,113.279Z" transform="translate(-81.987 -33.682)" fill="#fff"/>
      <path id="Path_53" data-name="Path 53" d="M188.4,120.346c1.437.187,2.689.88,4.144,1.029a24.145,24.145,0,0,0,4.612-.432.5.5,0,0,1,.392.867c-2.219,2.168-7.807,2.08-9.638-.557A.565.565,0,0,1,188.4,120.346Z" transform="translate(-81.631 -32.584)" fill="#913f36" opacity="0.94"/>
      <path id="Path_54" data-name="Path 54" d="M194.448,106.039c2.123.918,3.956.141,5.688-1.154.581-.435,1.668.157,1.258.915-1.442,2.664-5.07,3.322-7.69,2.151C192.5,107.417,193.228,105.511,194.448,106.039Z" transform="translate(-80.823 -34.967)" fill="#913f36"/>
      <path id="Path_55" data-name="Path 55" d="M197.755,95.371c1.841,2.989,4.779,6.992,4.3,10.734-.275,2.162-2.093,4.671-4.512,4.129-.458-.1-.748-.85-.171-1.041,6.474-2.144,1.531-9.533-.025-13.638A.222.222,0,0,1,197.755,95.371Z" transform="translate(-80.217 -36.416)" fill="#23201f"/>
      <path id="Path_56" data-name="Path 56" d="M192.535,106.393a3.112,3.112,0,0,1,2.6.292.29.29,0,0,1-.051.495,3.1,3.1,0,0,1-2.607-.219A.335.335,0,0,1,192.535,106.393Z" transform="translate(-80.936 -34.741)" fill="#23201f"/>
      <path id="Path_57" data-name="Path 57" d="M201.608,94.212a2.542,2.542,0,0,0,3.832-1.108c.46-1.19-.392-3.173-1.739-3.184a2.675,2.675,0,0,0-2.219.466A2.528,2.528,0,0,0,201.608,94.212Z" transform="translate(-79.666 -37.241)" fill="#23201f"/>
      <path id="Path_58" data-name="Path 58" d="M182.386,92.236a2.543,2.543,0,0,0,3.832-1.108c.459-1.19-.392-3.173-1.741-3.184a2.672,2.672,0,0,0-2.218.466A2.527,2.527,0,0,0,182.386,92.236Z" transform="translate(-82.602 -37.543)" fill="#23201f"/>
      <path id="Path_59" data-name="Path 59" d="M201.757,83.31c2.58-.99,7.088-.2,7.68,3.067a.377.377,0,0,1-.587.362c-1.972-1.233-3.727-2.234-6.083-1.2C201.318,86.167,200.3,83.871,201.757,83.31Z" transform="translate(-79.607 -38.301)" fill="#913f36" opacity="0.94"/>
      <path id="Path_60" data-name="Path 60" d="M187.373,81.813c-2.325-1.5-6.9-1.637-8.143,1.44a.376.376,0,0,0,.5.474c2.182-.8,4.1-1.428,6.2.059C187.22,84.7,188.689,82.66,187.373,81.813Z" transform="translate(-82.944 -38.625)" fill="#913f36" opacity="0.94"/>
      <path id="Path_61" data-name="Path 61" d="M174.5,136.111c-2.743.1-5.923.765-6.293,3.479a8.141,8.141,0,0,0,1.048,4.214,33.626,33.626,0,0,0,6.122,9.383c2.632,2.727,6.021,4.838,9.394,5.3,5.471.755,9.655-2.8,12.621-6.716a14.8,14.8,0,0,0,2.847-5.424c1.489-6.189-2-7.731-7.442-8.773A81.782,81.782,0,0,0,174.5,136.111Z" transform="translate(-84.629 -30.183)" fill="#a35b45"/>
      <g id="Group_18" data-name="Group 18" transform="translate(238.557 86.609)">
        <path id="Path_62" data-name="Path 62" d="M328.3,193.046l.353,4.043c.176,2.018,2.495,3.4,4.02,3.954,4.964,1.79,10.488-.323,13.669-5.23-.708-2.856-1.344-6.573-1.884-10.319C339.884,190.381,334.487,193.806,328.3,193.046Z" transform="translate(-298.729 -109.243)" fill="#a35b45"/>
        <path id="Path_63" data-name="Path 63" d="M327.358,182.022l1.086,12.439c6.187.761,11.584-2.665,16.158-7.553-.551-3.824-1-7.676-1.323-10.681Z" transform="translate(-298.873 -110.658)" fill="#913f36"/>
        <path id="Path_64" data-name="Path 64" d="M311.4,151.29a2.17,2.17,0,0,0-1.354-1.432,5.312,5.312,0,0,0-2.016-.285c-1.679.009-3.539.319-4.588,1.631a4.509,4.509,0,0,0-.587,3.99,6.841,6.841,0,0,0,8.9,4.614Z" transform="translate(-302.647 -114.728)" fill="#913f36" opacity="0.94"/>
        <path id="Path_65" data-name="Path 65" d="M348.97,147.425a2.167,2.167,0,0,1,1.035-1.677,5.32,5.32,0,0,1,1.916-.689c1.646-.332,3.53-.408,4.824.663a4.512,4.512,0,0,1,1.386,3.788,6.841,6.841,0,0,1-7.774,6.328Z" transform="translate(-295.572 -115.452)" fill="#913f36" opacity="0.94"/>
        <path id="Path_66" data-name="Path 66" d="M307.914,171.361c.861,6.815,7.6,17.661,15.457,21.435,5.07,2.437,15.364-.514,19.051-2.682,10.4-6.115,16.829-15.256,16.236-20.054-1.36-11.014-1.809-23.249-5.961-33.64-5.308-13.142-23.011-23.844-35.234-11.875C307.138,134.656,306.237,158.073,307.914,171.361Z" transform="translate(-301.945 -119.345)" fill="#a35b45"/>
        <path id="Path_67" data-name="Path 67" d="M331.6,175.827c-1.437.187-2.689.88-4.143,1.029a23.97,23.97,0,0,1-4.613-.432.5.5,0,0,0-.392.868c2.219,2.167,7.807,2.08,9.638-.558A.565.565,0,0,0,331.6,175.827Z" transform="translate(-299.648 -110.72)" fill="#913f36" opacity="0.94"/>
        <path id="Path_68" data-name="Path 68" d="M325.35,161.52c-2.123.919-3.956.142-5.688-1.154-.581-.433-1.668.158-1.258.916,1.443,2.663,5.07,3.321,7.691,2.151C327.295,162.9,326.57,160.994,325.35,161.52Z" transform="translate(-300.254 -113.103)" fill="#913f36" opacity="0.94"/>
        <path id="Path_69" data-name="Path 69" d="M321.6,150.853c-1.841,2.989-4.779,6.991-4.3,10.734.274,2.161,2.092,4.671,4.511,4.128.459-.1.749-.848.171-1.04-6.474-2.145-1.531-9.534.025-13.639A.222.222,0,0,0,321.6,150.853Z" transform="translate(-300.417 -114.551)" fill="#23201f"/>
        <path id="Path_70" data-name="Path 70" d="M326.536,161.874a3.112,3.112,0,0,0-2.6.292.29.29,0,0,0,.051.495,3.1,3.1,0,0,0,2.608-.219A.335.335,0,0,0,326.536,161.874Z" transform="translate(-299.414 -112.877)" fill="#23201f"/>
        <path id="Path_71" data-name="Path 71" d="M317.854,145.867a2.673,2.673,0,0,0-2.218-.466c-1.349.01-2.2,2-1.741,3.185a2.477,2.477,0,1,0,3.958-2.719Z" transform="translate(-300.948 -115.376)" fill="#23201f"/>
        <path id="Path_72" data-name="Path 72" d="M337.076,143.891a2.672,2.672,0,0,0-2.218-.466c-1.349.01-2.2,1.994-1.741,3.185a2.477,2.477,0,1,0,3.958-2.719Z" transform="translate(-298.013 -115.678)" fill="#23201f"/>
        <path id="Path_73" data-name="Path 73" d="M318.041,138.792c-2.58-.991-7.088-.2-7.679,3.066a.377.377,0,0,0,.587.362c1.973-1.232,3.727-2.233,6.083-1.2C318.48,141.648,319.5,139.352,318.041,138.792Z" transform="translate(-301.47 -116.436)" fill="#23201f"/>
        <path id="Path_74" data-name="Path 74" d="M332.464,137.294c2.325-1.494,6.9-1.637,8.143,1.441a.376.376,0,0,1-.5.474c-2.182-.806-4.1-1.428-6.2.058C332.617,140.181,331.148,138.142,332.464,137.294Z" transform="translate(-298.172 -116.761)" fill="#23201f"/>
      </g>
      <path id="Path_75" data-name="Path 75" d="M331.69,170.276a21.533,21.533,0,0,1-5.334,1.66,15.551,15.551,0,0,1-6.031-.861.585.585,0,0,0-.448,1.064c3.447,2.384,9.391,2.24,12.447-.775C332.762,170.932,332.318,170.042,331.69,170.276Z" transform="translate(-61.499 -24.963)" fill="#23201f"/>
      <path id="Path_76" data-name="Path 76" d="M321.025,192.342a34.824,34.824,0,0,0-14.447,10.244,3.27,3.27,0,0,1-1.556,1.25,4.142,4.142,0,0,1-1.881-.22,4.545,4.545,0,0,0-4.3,1.1,2.935,2.935,0,0,0,.1,4.137,3.608,3.608,0,0,1-3.116.243,237.2,237.2,0,0,0,7.917,29.028c1.246,3.641,2.724,7.455,5.779,9.8Z" transform="translate(-65.132 -21.587)" fill="#649ce4" opacity="0.97"/>
      <path id="Path_77" data-name="Path 77" d="M306.331,215.532a.533.533,0,0,0-1.065,0c-1.2,16.749-2.121,34.622-.758,51.36a.444.444,0,0,0,.888,0C307.3,250.205,306.977,232.312,306.331,215.532Z" transform="translate(-63.909 -18.124)" fill="#2763b0"/>
      <path id="Path_78" data-name="Path 78" d="M298.215,206.387c-.141-.248-.474-.069-.432.182.895,5.5,3.681,11.074,5.777,16.21.075.183.364.116.3-.083C302.291,217.376,300.963,211.239,298.215,206.387Z" transform="translate(-64.834 -19.461)" fill="#2763b0"/>
      <path id="Path_79" data-name="Path 79" d="M303.256,204.221c-.115-.355-.725-.431-.8,0-.478,2.8.322,6.192.87,8.961.04.2.339.144.348-.047C303.816,210.354,304.13,206.9,303.256,204.221Z" transform="translate(-64.142 -19.818)" fill="#2763b0"/>
      <path id="Path_80" data-name="Path 80" d="M345.538,201.925c-8.624,2.314-15.36.966-21.646-5.441a.406.406,0,0,0-.635.49c4.567,7.4,15.1,10.364,22.622,5.762A.446.446,0,0,0,345.538,201.925Z" transform="translate(-60.952 -20.972)" fill="#2763b0"/>
      <path id="Path_81" data-name="Path 81" d="M349.475,195.214a.31.31,0,0,0-.448-.183c-.734.367-.868,1.369-1.077,2.071a.4.4,0,0,0,.722.3C349.059,196.771,349.7,196.015,349.475,195.214Z" transform="translate(-57.174 -21.182)" fill="#2763b0"/>
      <path id="Path_82" data-name="Path 82" d="M304.733,242c-1.141-1.331-2.286-2.679-3.388-3.792-3.984-4.025-8.139-8.166-13.436-10.169a50.128,50.128,0,0,0-12.2,17.123c3.728,3.866,7.548,7.641,11.41,11.375A49.179,49.179,0,0,0,304.733,242Z" transform="translate(-68.204 -16.136)" fill="#455a64"/>
      <path id="Path_83" data-name="Path 83" d="M285.609,254.682c1.633,1.58,3.256,3.173,4.914,4.73a2.067,2.067,0,0,0,1.077.652c.681.085,1.241-.5,1.678-1.028q6.429-7.824,12.86-15.646c-.95-.96-1.932-2.1-2.916-3.244A49.178,49.178,0,0,1,285.609,254.682Z" transform="translate(-66.692 -14.286)" fill="#37474f"/>
      <path id="Path_84" data-name="Path 84" d="M296.568,270.5c-.3-5.91-.469-11.866-1.3-17.73-.1-.674-1.116-.469-1.143.154-.294,6.678.236,13.414.544,20.087.127,2.765.712,6.3-.26,8.974-2.6,7.15-9.524,4.888-14.356,4.074a.77.77,0,0,0-.409,1.484c5.742,1.9,13.645,2.423,16.348-4.281C297.576,279.334,296.777,274.582,296.568,270.5Z" transform="translate(-67.687 -12.423)" fill="#37474f"/>
      <rect id="Rectangle_37" data-name="Rectangle 37" width="45.682" height="5.965" rx="2.221" transform="translate(170.263 272.004)" fill="#78909c"/>
      <path id="Path_85" data-name="Path 85" d="M254.744,294.985c-1.932-1.554-4.353-2.029-6.341-.058-1.2,1.188-.622,2.089-1.338,3.241-2.884,4.65-6.4,4-11.234,3.834-7.846-.278-16.328-.651-23.918-2.73-11.156-3.056-4.885-11.77-3.9-19.437,3.693-28.574-26.039-47.7-28.492-75.032-.1-1.087-1.8-1.107-1.715,0,1.084,14.077,8.68,25.657,16.069,37.264,4.5,7.074,8.943,14.311,11.228,22.452a40.066,40.066,0,0,1,1.608,12.219c-.18,4.991-2.151,8.576-3.209,13.249-2.514,11.093,11.228,11.817,18.932,12.734,6.975.83,15.275,2.189,22.257,1.007,1.283-.217,2.889-.584,3.752-1.7,1.658-2.152-1.078-8.9,5.76-6.116C254.709,296.113,255.162,295.323,254.744,294.985Z" transform="translate(-83.157 -19.81)" fill="#37474f"/>
      <path id="Path_86" data-name="Path 86" d="M178.943,187.665c-12.152.868-9.474,22.217-.089,20.441C187.933,210.434,191.39,186.775,178.943,187.665Z" transform="translate(-84.228 -22.305)" fill="#37474f"/>
      <g id="Group_20" data-name="Group 20" transform="translate(29.234 110.793)">
        <path id="Path_87" data-name="Path 87" d="M176.032,197.561a182.566,182.566,0,0,0-30.169-1.365,165.986,165.986,0,0,0,7.346-20.633l-17.436-9.092c-6.247,11.435-13.49,36.638-13.49,36.638l-1.059,4.971a7.343,7.343,0,0,0,7.471,8.868c8.778-.337,21.614-1.168,29.109-3.139a97.391,97.391,0,0,0,18.787-7.145C176.936,202.54,176.6,201.664,176.032,197.561Z" transform="translate(-121.058 -136.332)" fill="#b56654"/>
        <path id="Path_88" data-name="Path 88" d="M151.7,185.066a109.465,109.465,0,0,1-21.9-12.192c.576-1.5,1.214-2.974,1.881-4.435,5.7,5.977,13.385,10.215,20.606,14.185Z" transform="translate(-119.723 -136.031)" fill="#b2dfdb"/>
        <path id="Path_89" data-name="Path 89" d="M158.971,140.325l-6.929,46.593c-7.221-3.97-14.9-8.209-20.606-14.185C138.3,157.682,144.664,148.643,158.971,140.325Z" transform="translate(-119.473 -140.325)" fill="#80cbc4"/>
        <g id="Group_19" data-name="Group 19" transform="translate(52.473 50.724)">
          <path id="Path_90" data-name="Path 90" d="M166.579,194.415a29.317,29.317,0,0,1,6.07-5.684,8.207,8.207,0,0,1,7.51-1.017,4.248,4.248,0,0,1,1.73,1.266,8.144,8.144,0,0,1,1.224,3.791c.314,2.081.607,4.334-.193,6.2a7.4,7.4,0,0,1-3.28,3.308c-3.759,2.217-8.4,3.178-12.144.808Z" transform="translate(-166.579 -183.89)" fill="#b56654"/>
          <path id="Path_91" data-name="Path 91" d="M175.512,191.885c-1.791-1.907-.353-4.456,1.4-5.867,2.514-2.023,5.872-1.994,8.833-1.138,2.255.652,1.663,4.286-.646,3.644-1.8-.5-3.858-1-5.6-.038-1.381.762-1.711,2.217-2.75,3.283A.888.888,0,0,1,175.512,191.885Z" transform="translate(-165.34 -184.328)" fill="#b56654"/>
          <path id="Path_92" data-name="Path 92" d="M175.555,192.643c-.792-2.492,1.606-4.172,3.8-4.688,3.14-.74,6.158.737,8.459,2.787,1.752,1.562-.349,4.583-2.156,3.009-1.411-1.23-3.049-2.568-5.034-2.453-1.575.092-2.5,1.262-3.9,1.774A.889.889,0,0,1,175.555,192.643Z" transform="translate(-165.232 -183.804)" fill="#b56654"/>
          <path id="Path_93" data-name="Path 93" d="M174.445,194.034c.045-2.616,2.855-3.44,5.094-3.229,3.213.3,5.6,2.666,7.125,5.345,1.161,2.039-1.8,4.232-3,2.161-.944-1.617-2.068-3.407-3.986-3.933-1.522-.417-2.772.4-4.262.435C174.984,194.824,174.436,194.539,174.445,194.034Z" transform="translate(-165.378 -183.344)" fill="#b56654"/>
          <path id="Path_94" data-name="Path 94" d="M171.674,197c.046-2.616,2.855-3.44,5.1-3.229,3.213.3,5.6,2.666,7.125,5.345,1.16,2.039-1.8,4.232-3.005,2.161-.943-1.617-2.068-3.407-3.986-3.933-1.52-.417-2.772.4-4.26.435C172.214,197.788,171.666,197.5,171.674,197Z" transform="translate(-165.801 -182.891)" fill="#b56654"/>
        </g>
      </g>
      <g id="Group_22" data-name="Group 22" transform="translate(232.526 188.751)">
        <path id="Path_95" data-name="Path 95" d="M313.789,223.766c9.19,4.436,22.255,13.565,30.454,19.354,3.265-6.99,5.148-8.584,7.735-14.434l23.029,9.911c-4.785,10.4-13.149,17.432-18.31,21.755a30.307,30.307,0,0,0-3.969,4.228,7.353,7.353,0,0,1-9.955,1.337c-7.16-5.092-17.443-12.818-22.633-18.572a97.379,97.379,0,0,1-11.805-16.268C310.3,227.435,311.07,226.89,313.789,223.766Z" transform="translate(-295.747 -205.539)" fill="#b56654"/>
        <g id="Group_21" data-name="Group 21">
          <path id="Path_96" data-name="Path 96" d="M317.025,226.708a29.325,29.325,0,0,0-1.964-8.081,8.209,8.209,0,0,0-5.727-4.965,4.243,4.243,0,0,0-2.141.111,8.148,8.148,0,0,0-3.1,2.5c-1.4,1.569-2.882,3.294-3.233,5.292a7.39,7.39,0,0,0,.931,4.565c1.93,3.914,5.283,7.258,9.717,7.328Z" transform="translate(-296.901 -207.095)" fill="#b56654"/>
          <path id="Path_97" data-name="Path 97" d="M309.87,219.511c2.543-.613,2.737-3.534,2.043-5.675-.995-3.07-3.82-4.885-6.768-5.79-2.243-.689-3.738,2.674-1.456,3.4,1.783.569,3.776,1.277,4.707,3.035.738,1.395.217,2.792.5,4.254C308.981,219.157,309.379,219.63,309.87,219.511Z" transform="translate(-296.631 -207.954)" fill="#b56654"/>
          <path id="Path_98" data-name="Path 98" d="M309.624,219.96c2.029-1.651.942-4.37-.607-6-2.222-2.34-5.555-2.758-8.6-2.3-2.322.346-2.218,4.025.156,3.7,1.854-.256,3.957-.478,5.555.707,1.267.938,1.4,2.424,2.29,3.62A.887.887,0,0,0,309.624,219.96Z" transform="translate(-297.214 -207.413)" fill="#b56654"/>
          <path id="Path_99" data-name="Path 99" d="M309.862,221.62c1.394-2.213-.5-4.441-2.495-5.492-2.854-1.507-6.145-.837-8.889.569-2.088,1.071-.814,4.524,1.329,3.455,1.676-.837,3.6-1.719,5.49-1.108,1.5.484,2.1,1.85,3.327,2.7A.889.889,0,0,0,309.862,221.62Z" transform="translate(-297.415 -206.836)" fill="#b56654"/>
          <path id="Path_100" data-name="Path 100" d="M310.556,225.617c1.395-2.212-.5-4.441-2.493-5.492-2.854-1.505-6.146-.837-8.889.571-2.089,1.07-.815,4.523,1.329,3.454,1.675-.836,3.6-1.719,5.489-1.108,1.5.485,2.1,1.85,3.328,2.7A.886.886,0,0,0,310.556,225.617Z" transform="translate(-297.309 -206.225)" fill="#b56654"/>
        </g>
      </g>
      <path id="Path_101" data-name="Path 101" d="M154.793,164.679c-3.542,5.523-5.176,12.235-6.061,18.656-.114.833,1.137,1.22,1.293.357,1.188-6.537,3.622-12.342,5.975-18.5C156.278,164.463,155.18,164.077,154.793,164.679Z" transform="translate(-87.599 -25.858)" fill="#4db6ac"/>
      <path id="Path_102" data-name="Path 102" d="M157.008,166.847c-2.662,2.458-4.66,5.626-6.727,8.569-.187.265.233.587.45.347,2.408-2.672,5.049-5.33,6.851-8.474A.367.367,0,0,0,157.008,166.847Z" transform="translate(-87.368 -25.496)" fill="#4db6ac"/>
      <path id="Path_103" data-name="Path 103" d="M208.826,172.351a.375.375,0,0,0-.723.2,221.814,221.814,0,0,1,3.538,42.17c0,.483.8.626.871.119A97.3,97.3,0,0,0,208.826,172.351Z" transform="translate(-78.531 -24.681)" fill="#4db6ac"/>
      <path id="Path_104" data-name="Path 104" d="M372.394,237.367c-4.5-2.677-10.038-3.835-14.861-5.923-4.285-1.854-8.47-4.7-13.074-5.563a.248.248,0,0,0-.24.412c3.526,3.855,9.3,5.854,14.04,7.86,4.357,1.844,9.044,4.153,13.8,4.463A.676.676,0,0,0,372.394,237.367Z" transform="translate(-57.752 -16.466)" fill="#2763b0"/>
      <path id="Path_105" data-name="Path 105" d="M374.769,221.775a.575.575,0,0,0-1.124-.152c-1.143,2.833-1.593,5.873-2.5,8.787-.892,2.852-2.491,5.667-2.954,8.605-.063.409.42.806.759.441,1.96-2.112,2.929-5.26,3.848-7.958C373.859,228.362,374.918,225.116,374.769,221.775Z" transform="translate(-54.081 -17.176)" fill="#2763b0"/>
      <path id="Path_106" data-name="Path 106" d="M354.29,208.915c-2.4,3.175-3.942,6.966-5.669,10.535a79.368,79.368,0,0,0-4.3,9.632c-.18.548.587.8.883.372a90.675,90.675,0,0,0,5.711-10.512c1.6-3.132,3.366-6.234,4.316-9.632C355.4,208.711,354.622,208.477,354.29,208.915Z" transform="translate(-57.73 -19.091)" fill="#2763b0"/>
      <path id="Path_107" data-name="Path 107" d="M348.352,211.033a.328.328,0,0,0-.627,0c-.782,3.387-.5,7.5-.356,10.961a.72.72,0,0,0,1.44,0C348.919,218.534,349.163,214.408,348.352,211.033Z" transform="translate(-57.286 -18.768)" fill="#2763b0"/>
      <path id="Path_108" data-name="Path 108" d="M371.68,260.639a82.766,82.766,0,0,1-14.223,29.141c-6.537,8.456-14.62,13.928-22.845,20.491-.748.6.206,1.549.944,1.224,18.964-8.388,32.595-31.2,37.133-50.578A.523.523,0,0,0,371.68,260.639Z" transform="translate(-59.25 -11.213)" fill="#2763b0"/>
      <path id="Path_109" data-name="Path 109" d="M358.2,296.128a79.146,79.146,0,0,0-13.573,9.663.624.624,0,0,0,.753.975,79.078,79.078,0,0,0,13.252-10.082C358.933,296.414,358.544,295.924,358.2,296.128Z" transform="translate(-57.707 -5.744)" fill="#2763b0"/>
      <g id="Group_24" data-name="Group 24" transform="translate(48.555 277.802)">
        <path id="Path_110" data-name="Path 110" d="M390.808,293.25l-248.959.49a4.022,4.022,0,0,1-4.03-4.014h0a4.023,4.023,0,0,1,4.014-4.031l248.959-.489a4.022,4.022,0,0,1,4.03,4.014h0A4.022,4.022,0,0,1,390.808,293.25Z" transform="translate(-137.819 -285.206)" fill="#94c2fa"/>
        <g id="Group_23" data-name="Group 23" transform="translate(40.414 3.729)">
          <path id="Path_111" data-name="Path 111" d="M172.878,288.744l.358,181.775a4.048,4.048,0,1,0,8.044-.015l-.357-181.776Z" transform="translate(-172.878 -288.397)" fill="#9dc5f6"/>
          <path id="Path_112" data-name="Path 112" d="M318.732,288.457l.357,181.776a4.049,4.049,0,1,0,8.045-.016l-.359-181.776Z" transform="translate(-150.602 -288.441)" fill="#9dc5f6"/>
        </g>
      </g>
      <path id="Path_113" data-name="Path 113" d="M202.993,278.719c-6.085-1.892-12.92-2.041-19.2-2.935-6.443-.916-12.877-1.88-19.292-2.974-11.828-2.017-24.257-6.086-36.233-6.469a.487.487,0,0,0-.244.9c11.033,5.169,24.964,6.586,36.9,8.61,5.743.975,11.5,1.878,17.277,2.624,6.662.861,13.9,2.376,20.6,1.7A.744.744,0,0,0,202.993,278.719Z" transform="translate(-90.797 -10.286)" fill="#4db6ac"/>
      <path id="Path_114" data-name="Path 114" d="M192.776,137.565l-.353,4.043c-.176,2.018-2.495,3.4-4.02,3.953-4.964,1.791-10.488-.322-13.669-5.23.708-2.855,1.344-6.573,1.884-10.319C181.193,134.9,186.59,138.326,192.776,137.565Z" transform="translate(-83.626 -31.107)" fill="#a35b45"/>
      <path id="Path_115" data-name="Path 115" d="M168.552,95.4c2.121-8.866,7.475-15.92,11.133-20a19.283,19.283,0,0,1,9.686-6.235c6.641-1.553,11.477-1.258,18.344,4.761,0,0,8.011,6.018,8.565,22.67.107,3.213-.666-38.253-17.536-42.2C176.333,49.143,168.552,95.4,168.552,95.4Z" transform="translate(-84.57 -42.72)" fill="#23201f"/>
    </g>
    <g id="Group_1060" data-name="Group 1060" transform="translate(369.509 346.398)">
      <g id="Group_1059" data-name="Group 1059" transform="translate(0 0)">
        <path id="Path_762" data-name="Path 762" d="M1551.257-5.024c-.454-3.657-3.548-7.068-7.234-7.071a8.079,8.079,0,0,0-5.734,2.727,14.859,14.859,0,0,0-1.454,1.724,14.943,14.943,0,0,0-1.086-1.977,8.083,8.083,0,0,0-5.086-3.8c-3.614-.724-7.319,2.012-8.484,5.508s-.2,7.424,1.72,10.572a20.731,20.731,0,0,0,11.292,9.308c4.19-.537,9.8-4.253,12.3-6.963S1551.711-1.366,1551.257-5.024Z" transform="translate(-1521.673 13.539)" fill="#e5002c"/>
      </g>
    </g>
    <g id="Group_1063" data-name="Group 1063" transform="translate(370.023 354.391)">
      <g id="Group_1062" data-name="Group 1062" transform="translate(0 0)">
        <g id="Group_1061" data-name="Group 1061">
          <path id="Path_763" data-name="Path 763" d="M1550.238,6.358a.448.448,0,0,1-.122,0l-.355-.023-1.365-.112-5.013-.459.091-.056c-.6,1.576-1.312,3.422-2.089,5.445l-.126.328-.082-.342c-.636-2.642-1.35-5.6-2.1-8.723l-.68-2.844.212.042-3.827,5.261-.037.051-.061-.006L1525.874,4l-2.493-.278-.659-.082a1.109,1.109,0,0,1-.225-.04,1.2,1.2,0,0,1,.229,0l.662.049,2.5.218,8.816.832-.1.044,3.808-5.274.152-.21.06.252c.223.928.451,1.878.682,2.844l2.08,8.728-.208-.014,2.129-5.429.024-.062.066.007,5.006.537,1.36.159.353.047A.428.428,0,0,1,1550.238,6.358Z" transform="translate(-1522.496 0.735)" fill="#f8fafa"/>
        </g>
      </g>
    </g>
  </g>
</svg>
